%TF.GenerationSoftware,KiCad,Pcbnew,(7.0.0-rc2-153-g7d6218acb4)*%
%TF.CreationDate,2023-02-19T18:31:40+05:30*%
%TF.ProjectId,ncr-pcb,6e63722d-7063-4622-9e6b-696361645f70,rev?*%
%TF.SameCoordinates,Original*%
%TF.FileFunction,Other,Comment*%
%FSLAX46Y46*%
G04 Gerber Fmt 4.6, Leading zero omitted, Abs format (unit mm)*
G04 Created by KiCad (PCBNEW (7.0.0-rc2-153-g7d6218acb4)) date 2023-02-19 18:31:40*
%MOMM*%
%LPD*%
G01*
G04 APERTURE LIST*
%ADD10C,0.150000*%
G04 APERTURE END LIST*
D10*
%TO.C,U1*%
X189222142Y-40482740D02*
X189269761Y-40530359D01*
X189269761Y-40530359D02*
X189317380Y-40673216D01*
X189317380Y-40673216D02*
X189317380Y-40768454D01*
X189317380Y-40768454D02*
X189269761Y-40911311D01*
X189269761Y-40911311D02*
X189174523Y-41006549D01*
X189174523Y-41006549D02*
X189079285Y-41054168D01*
X189079285Y-41054168D02*
X188888809Y-41101787D01*
X188888809Y-41101787D02*
X188745952Y-41101787D01*
X188745952Y-41101787D02*
X188555476Y-41054168D01*
X188555476Y-41054168D02*
X188460238Y-41006549D01*
X188460238Y-41006549D02*
X188365000Y-40911311D01*
X188365000Y-40911311D02*
X188317380Y-40768454D01*
X188317380Y-40768454D02*
X188317380Y-40673216D01*
X188317380Y-40673216D02*
X188365000Y-40530359D01*
X188365000Y-40530359D02*
X188412619Y-40482740D01*
X189317380Y-39911311D02*
X189269761Y-40006549D01*
X189269761Y-40006549D02*
X189222142Y-40054168D01*
X189222142Y-40054168D02*
X189126904Y-40101787D01*
X189126904Y-40101787D02*
X188841190Y-40101787D01*
X188841190Y-40101787D02*
X188745952Y-40054168D01*
X188745952Y-40054168D02*
X188698333Y-40006549D01*
X188698333Y-40006549D02*
X188650714Y-39911311D01*
X188650714Y-39911311D02*
X188650714Y-39768454D01*
X188650714Y-39768454D02*
X188698333Y-39673216D01*
X188698333Y-39673216D02*
X188745952Y-39625597D01*
X188745952Y-39625597D02*
X188841190Y-39577978D01*
X188841190Y-39577978D02*
X189126904Y-39577978D01*
X189126904Y-39577978D02*
X189222142Y-39625597D01*
X189222142Y-39625597D02*
X189269761Y-39673216D01*
X189269761Y-39673216D02*
X189317380Y-39768454D01*
X189317380Y-39768454D02*
X189317380Y-39911311D01*
X188650714Y-39149406D02*
X189650714Y-39149406D01*
X188698333Y-39149406D02*
X188650714Y-39054168D01*
X188650714Y-39054168D02*
X188650714Y-38863692D01*
X188650714Y-38863692D02*
X188698333Y-38768454D01*
X188698333Y-38768454D02*
X188745952Y-38720835D01*
X188745952Y-38720835D02*
X188841190Y-38673216D01*
X188841190Y-38673216D02*
X189126904Y-38673216D01*
X189126904Y-38673216D02*
X189222142Y-38720835D01*
X189222142Y-38720835D02*
X189269761Y-38768454D01*
X189269761Y-38768454D02*
X189317380Y-38863692D01*
X189317380Y-38863692D02*
X189317380Y-39054168D01*
X189317380Y-39054168D02*
X189269761Y-39149406D01*
X188650714Y-38244644D02*
X189650714Y-38244644D01*
X188698333Y-38244644D02*
X188650714Y-38149406D01*
X188650714Y-38149406D02*
X188650714Y-37958930D01*
X188650714Y-37958930D02*
X188698333Y-37863692D01*
X188698333Y-37863692D02*
X188745952Y-37816073D01*
X188745952Y-37816073D02*
X188841190Y-37768454D01*
X188841190Y-37768454D02*
X189126904Y-37768454D01*
X189126904Y-37768454D02*
X189222142Y-37816073D01*
X189222142Y-37816073D02*
X189269761Y-37863692D01*
X189269761Y-37863692D02*
X189317380Y-37958930D01*
X189317380Y-37958930D02*
X189317380Y-38149406D01*
X189317380Y-38149406D02*
X189269761Y-38244644D01*
X189269761Y-36958930D02*
X189317380Y-37054168D01*
X189317380Y-37054168D02*
X189317380Y-37244644D01*
X189317380Y-37244644D02*
X189269761Y-37339882D01*
X189269761Y-37339882D02*
X189174523Y-37387501D01*
X189174523Y-37387501D02*
X188793571Y-37387501D01*
X188793571Y-37387501D02*
X188698333Y-37339882D01*
X188698333Y-37339882D02*
X188650714Y-37244644D01*
X188650714Y-37244644D02*
X188650714Y-37054168D01*
X188650714Y-37054168D02*
X188698333Y-36958930D01*
X188698333Y-36958930D02*
X188793571Y-36911311D01*
X188793571Y-36911311D02*
X188888809Y-36911311D01*
X188888809Y-36911311D02*
X188984047Y-37387501D01*
X189317380Y-36482739D02*
X188650714Y-36482739D01*
X188841190Y-36482739D02*
X188745952Y-36435120D01*
X188745952Y-36435120D02*
X188698333Y-36387501D01*
X188698333Y-36387501D02*
X188650714Y-36292263D01*
X188650714Y-36292263D02*
X188650714Y-36197025D01*
X189317380Y-35263691D02*
X188317380Y-35263691D01*
X189317380Y-34692263D02*
X188745952Y-35120834D01*
X188317380Y-34692263D02*
X188888809Y-35263691D01*
X189269761Y-33882739D02*
X189317380Y-33977977D01*
X189317380Y-33977977D02*
X189317380Y-34168453D01*
X189317380Y-34168453D02*
X189269761Y-34263691D01*
X189269761Y-34263691D02*
X189174523Y-34311310D01*
X189174523Y-34311310D02*
X188793571Y-34311310D01*
X188793571Y-34311310D02*
X188698333Y-34263691D01*
X188698333Y-34263691D02*
X188650714Y-34168453D01*
X188650714Y-34168453D02*
X188650714Y-33977977D01*
X188650714Y-33977977D02*
X188698333Y-33882739D01*
X188698333Y-33882739D02*
X188793571Y-33835120D01*
X188793571Y-33835120D02*
X188888809Y-33835120D01*
X188888809Y-33835120D02*
X188984047Y-34311310D01*
X189269761Y-33025596D02*
X189317380Y-33120834D01*
X189317380Y-33120834D02*
X189317380Y-33311310D01*
X189317380Y-33311310D02*
X189269761Y-33406548D01*
X189269761Y-33406548D02*
X189174523Y-33454167D01*
X189174523Y-33454167D02*
X188793571Y-33454167D01*
X188793571Y-33454167D02*
X188698333Y-33406548D01*
X188698333Y-33406548D02*
X188650714Y-33311310D01*
X188650714Y-33311310D02*
X188650714Y-33120834D01*
X188650714Y-33120834D02*
X188698333Y-33025596D01*
X188698333Y-33025596D02*
X188793571Y-32977977D01*
X188793571Y-32977977D02*
X188888809Y-32977977D01*
X188888809Y-32977977D02*
X188984047Y-33454167D01*
X188650714Y-32549405D02*
X189650714Y-32549405D01*
X188698333Y-32549405D02*
X188650714Y-32454167D01*
X188650714Y-32454167D02*
X188650714Y-32263691D01*
X188650714Y-32263691D02*
X188698333Y-32168453D01*
X188698333Y-32168453D02*
X188745952Y-32120834D01*
X188745952Y-32120834D02*
X188841190Y-32073215D01*
X188841190Y-32073215D02*
X189126904Y-32073215D01*
X189126904Y-32073215D02*
X189222142Y-32120834D01*
X189222142Y-32120834D02*
X189269761Y-32168453D01*
X189269761Y-32168453D02*
X189317380Y-32263691D01*
X189317380Y-32263691D02*
X189317380Y-32454167D01*
X189317380Y-32454167D02*
X189269761Y-32549405D01*
X189317380Y-31501786D02*
X189269761Y-31597024D01*
X189269761Y-31597024D02*
X189222142Y-31644643D01*
X189222142Y-31644643D02*
X189126904Y-31692262D01*
X189126904Y-31692262D02*
X188841190Y-31692262D01*
X188841190Y-31692262D02*
X188745952Y-31644643D01*
X188745952Y-31644643D02*
X188698333Y-31597024D01*
X188698333Y-31597024D02*
X188650714Y-31501786D01*
X188650714Y-31501786D02*
X188650714Y-31358929D01*
X188650714Y-31358929D02*
X188698333Y-31263691D01*
X188698333Y-31263691D02*
X188745952Y-31216072D01*
X188745952Y-31216072D02*
X188841190Y-31168453D01*
X188841190Y-31168453D02*
X189126904Y-31168453D01*
X189126904Y-31168453D02*
X189222142Y-31216072D01*
X189222142Y-31216072D02*
X189269761Y-31263691D01*
X189269761Y-31263691D02*
X189317380Y-31358929D01*
X189317380Y-31358929D02*
X189317380Y-31501786D01*
X188650714Y-30311310D02*
X189317380Y-30311310D01*
X188650714Y-30739881D02*
X189174523Y-30739881D01*
X189174523Y-30739881D02*
X189269761Y-30692262D01*
X189269761Y-30692262D02*
X189317380Y-30597024D01*
X189317380Y-30597024D02*
X189317380Y-30454167D01*
X189317380Y-30454167D02*
X189269761Y-30358929D01*
X189269761Y-30358929D02*
X189222142Y-30311310D01*
X188650714Y-29977976D02*
X188650714Y-29597024D01*
X188317380Y-29835119D02*
X189174523Y-29835119D01*
X189174523Y-29835119D02*
X189269761Y-29787500D01*
X189269761Y-29787500D02*
X189317380Y-29692262D01*
X189317380Y-29692262D02*
X189317380Y-29597024D01*
X189269761Y-29311309D02*
X189317380Y-29216071D01*
X189317380Y-29216071D02*
X189317380Y-29025595D01*
X189317380Y-29025595D02*
X189269761Y-28930357D01*
X189269761Y-28930357D02*
X189174523Y-28882738D01*
X189174523Y-28882738D02*
X189126904Y-28882738D01*
X189126904Y-28882738D02*
X189031666Y-28930357D01*
X189031666Y-28930357D02*
X188984047Y-29025595D01*
X188984047Y-29025595D02*
X188984047Y-29168452D01*
X188984047Y-29168452D02*
X188936428Y-29263690D01*
X188936428Y-29263690D02*
X188841190Y-29311309D01*
X188841190Y-29311309D02*
X188793571Y-29311309D01*
X188793571Y-29311309D02*
X188698333Y-29263690D01*
X188698333Y-29263690D02*
X188650714Y-29168452D01*
X188650714Y-29168452D02*
X188650714Y-29025595D01*
X188650714Y-29025595D02*
X188698333Y-28930357D01*
X189269761Y-27901785D02*
X189317380Y-27806547D01*
X189317380Y-27806547D02*
X189317380Y-27616071D01*
X189317380Y-27616071D02*
X189269761Y-27520833D01*
X189269761Y-27520833D02*
X189174523Y-27473214D01*
X189174523Y-27473214D02*
X189126904Y-27473214D01*
X189126904Y-27473214D02*
X189031666Y-27520833D01*
X189031666Y-27520833D02*
X188984047Y-27616071D01*
X188984047Y-27616071D02*
X188984047Y-27758928D01*
X188984047Y-27758928D02*
X188936428Y-27854166D01*
X188936428Y-27854166D02*
X188841190Y-27901785D01*
X188841190Y-27901785D02*
X188793571Y-27901785D01*
X188793571Y-27901785D02*
X188698333Y-27854166D01*
X188698333Y-27854166D02*
X188650714Y-27758928D01*
X188650714Y-27758928D02*
X188650714Y-27616071D01*
X188650714Y-27616071D02*
X188698333Y-27520833D01*
X189317380Y-27044642D02*
X188317380Y-27044642D01*
X189317380Y-26616071D02*
X188793571Y-26616071D01*
X188793571Y-26616071D02*
X188698333Y-26663690D01*
X188698333Y-26663690D02*
X188650714Y-26758928D01*
X188650714Y-26758928D02*
X188650714Y-26901785D01*
X188650714Y-26901785D02*
X188698333Y-26997023D01*
X188698333Y-26997023D02*
X188745952Y-27044642D01*
X189317380Y-25997023D02*
X189269761Y-26092261D01*
X189269761Y-26092261D02*
X189222142Y-26139880D01*
X189222142Y-26139880D02*
X189126904Y-26187499D01*
X189126904Y-26187499D02*
X188841190Y-26187499D01*
X188841190Y-26187499D02*
X188745952Y-26139880D01*
X188745952Y-26139880D02*
X188698333Y-26092261D01*
X188698333Y-26092261D02*
X188650714Y-25997023D01*
X188650714Y-25997023D02*
X188650714Y-25854166D01*
X188650714Y-25854166D02*
X188698333Y-25758928D01*
X188698333Y-25758928D02*
X188745952Y-25711309D01*
X188745952Y-25711309D02*
X188841190Y-25663690D01*
X188841190Y-25663690D02*
X189126904Y-25663690D01*
X189126904Y-25663690D02*
X189222142Y-25711309D01*
X189222142Y-25711309D02*
X189269761Y-25758928D01*
X189269761Y-25758928D02*
X189317380Y-25854166D01*
X189317380Y-25854166D02*
X189317380Y-25997023D01*
X188650714Y-25330356D02*
X189317380Y-25139880D01*
X189317380Y-25139880D02*
X188841190Y-24949404D01*
X188841190Y-24949404D02*
X189317380Y-24758928D01*
X189317380Y-24758928D02*
X188650714Y-24568452D01*
X188650714Y-24187499D02*
X189317380Y-24187499D01*
X188745952Y-24187499D02*
X188698333Y-24139880D01*
X188698333Y-24139880D02*
X188650714Y-24044642D01*
X188650714Y-24044642D02*
X188650714Y-23901785D01*
X188650714Y-23901785D02*
X188698333Y-23806547D01*
X188698333Y-23806547D02*
X188793571Y-23758928D01*
X188793571Y-23758928D02*
X189317380Y-23758928D01*
X189317380Y-22539880D02*
X189269761Y-22635118D01*
X189269761Y-22635118D02*
X189222142Y-22682737D01*
X189222142Y-22682737D02*
X189126904Y-22730356D01*
X189126904Y-22730356D02*
X188841190Y-22730356D01*
X188841190Y-22730356D02*
X188745952Y-22682737D01*
X188745952Y-22682737D02*
X188698333Y-22635118D01*
X188698333Y-22635118D02*
X188650714Y-22539880D01*
X188650714Y-22539880D02*
X188650714Y-22397023D01*
X188650714Y-22397023D02*
X188698333Y-22301785D01*
X188698333Y-22301785D02*
X188745952Y-22254166D01*
X188745952Y-22254166D02*
X188841190Y-22206547D01*
X188841190Y-22206547D02*
X189126904Y-22206547D01*
X189126904Y-22206547D02*
X189222142Y-22254166D01*
X189222142Y-22254166D02*
X189269761Y-22301785D01*
X189269761Y-22301785D02*
X189317380Y-22397023D01*
X189317380Y-22397023D02*
X189317380Y-22539880D01*
X188650714Y-21777975D02*
X189317380Y-21777975D01*
X188745952Y-21777975D02*
X188698333Y-21730356D01*
X188698333Y-21730356D02*
X188650714Y-21635118D01*
X188650714Y-21635118D02*
X188650714Y-21492261D01*
X188650714Y-21492261D02*
X188698333Y-21397023D01*
X188698333Y-21397023D02*
X188793571Y-21349404D01*
X188793571Y-21349404D02*
X189317380Y-21349404D01*
X189317380Y-20273213D02*
X188317380Y-20273213D01*
X188317380Y-20273213D02*
X188317380Y-20035118D01*
X188317380Y-20035118D02*
X188365000Y-19892261D01*
X188365000Y-19892261D02*
X188460238Y-19797023D01*
X188460238Y-19797023D02*
X188555476Y-19749404D01*
X188555476Y-19749404D02*
X188745952Y-19701785D01*
X188745952Y-19701785D02*
X188888809Y-19701785D01*
X188888809Y-19701785D02*
X189079285Y-19749404D01*
X189079285Y-19749404D02*
X189174523Y-19797023D01*
X189174523Y-19797023D02*
X189269761Y-19892261D01*
X189269761Y-19892261D02*
X189317380Y-20035118D01*
X189317380Y-20035118D02*
X189317380Y-20273213D01*
X188650714Y-19368451D02*
X189317380Y-19177975D01*
X189317380Y-19177975D02*
X188841190Y-18987499D01*
X188841190Y-18987499D02*
X189317380Y-18797023D01*
X189317380Y-18797023D02*
X188650714Y-18606547D01*
X188650714Y-17797023D02*
X189460238Y-17797023D01*
X189460238Y-17797023D02*
X189555476Y-17844642D01*
X189555476Y-17844642D02*
X189603095Y-17892261D01*
X189603095Y-17892261D02*
X189650714Y-17987499D01*
X189650714Y-17987499D02*
X189650714Y-18130356D01*
X189650714Y-18130356D02*
X189603095Y-18225594D01*
X189269761Y-17797023D02*
X189317380Y-17892261D01*
X189317380Y-17892261D02*
X189317380Y-18082737D01*
X189317380Y-18082737D02*
X189269761Y-18177975D01*
X189269761Y-18177975D02*
X189222142Y-18225594D01*
X189222142Y-18225594D02*
X189126904Y-18273213D01*
X189126904Y-18273213D02*
X188841190Y-18273213D01*
X188841190Y-18273213D02*
X188745952Y-18225594D01*
X188745952Y-18225594D02*
X188698333Y-18177975D01*
X188698333Y-18177975D02*
X188650714Y-18082737D01*
X188650714Y-18082737D02*
X188650714Y-17892261D01*
X188650714Y-17892261D02*
X188698333Y-17797023D01*
X189269761Y-17368451D02*
X189317380Y-17273213D01*
X189317380Y-17273213D02*
X189317380Y-17082737D01*
X189317380Y-17082737D02*
X189269761Y-16987499D01*
X189269761Y-16987499D02*
X189174523Y-16939880D01*
X189174523Y-16939880D02*
X189126904Y-16939880D01*
X189126904Y-16939880D02*
X189031666Y-16987499D01*
X189031666Y-16987499D02*
X188984047Y-17082737D01*
X188984047Y-17082737D02*
X188984047Y-17225594D01*
X188984047Y-17225594D02*
X188936428Y-17320832D01*
X188936428Y-17320832D02*
X188841190Y-17368451D01*
X188841190Y-17368451D02*
X188793571Y-17368451D01*
X188793571Y-17368451D02*
X188698333Y-17320832D01*
X188698333Y-17320832D02*
X188650714Y-17225594D01*
X188650714Y-17225594D02*
X188650714Y-17082737D01*
X188650714Y-17082737D02*
X188698333Y-16987499D01*
X189317380Y-15768451D02*
X189269761Y-15863689D01*
X189269761Y-15863689D02*
X189174523Y-15911308D01*
X189174523Y-15911308D02*
X188317380Y-15911308D01*
X189317380Y-14958927D02*
X188793571Y-14958927D01*
X188793571Y-14958927D02*
X188698333Y-15006546D01*
X188698333Y-15006546D02*
X188650714Y-15101784D01*
X188650714Y-15101784D02*
X188650714Y-15292260D01*
X188650714Y-15292260D02*
X188698333Y-15387498D01*
X189269761Y-14958927D02*
X189317380Y-15054165D01*
X189317380Y-15054165D02*
X189317380Y-15292260D01*
X189317380Y-15292260D02*
X189269761Y-15387498D01*
X189269761Y-15387498D02*
X189174523Y-15435117D01*
X189174523Y-15435117D02*
X189079285Y-15435117D01*
X189079285Y-15435117D02*
X188984047Y-15387498D01*
X188984047Y-15387498D02*
X188936428Y-15292260D01*
X188936428Y-15292260D02*
X188936428Y-15054165D01*
X188936428Y-15054165D02*
X188888809Y-14958927D01*
X188650714Y-14577974D02*
X189317380Y-14339879D01*
X188650714Y-14101784D02*
X189317380Y-14339879D01*
X189317380Y-14339879D02*
X189555476Y-14435117D01*
X189555476Y-14435117D02*
X189603095Y-14482736D01*
X189603095Y-14482736D02*
X189650714Y-14577974D01*
X189269761Y-13339879D02*
X189317380Y-13435117D01*
X189317380Y-13435117D02*
X189317380Y-13625593D01*
X189317380Y-13625593D02*
X189269761Y-13720831D01*
X189269761Y-13720831D02*
X189174523Y-13768450D01*
X189174523Y-13768450D02*
X188793571Y-13768450D01*
X188793571Y-13768450D02*
X188698333Y-13720831D01*
X188698333Y-13720831D02*
X188650714Y-13625593D01*
X188650714Y-13625593D02*
X188650714Y-13435117D01*
X188650714Y-13435117D02*
X188698333Y-13339879D01*
X188698333Y-13339879D02*
X188793571Y-13292260D01*
X188793571Y-13292260D02*
X188888809Y-13292260D01*
X188888809Y-13292260D02*
X188984047Y-13768450D01*
X189317380Y-12863688D02*
X188650714Y-12863688D01*
X188841190Y-12863688D02*
X188745952Y-12816069D01*
X188745952Y-12816069D02*
X188698333Y-12768450D01*
X188698333Y-12768450D02*
X188650714Y-12673212D01*
X188650714Y-12673212D02*
X188650714Y-12577974D01*
%TO.C,H10*%
X342874000Y-111266989D02*
G75*
G03*
X342874000Y-111266989I-2350000J0D01*
G01*
%TO.C,H9*%
X288374000Y-123842496D02*
G75*
G03*
X288374000Y-123842496I-2350000J0D01*
G01*
%TO.C,H8*%
X241409714Y-104692493D02*
G75*
G03*
X241409714Y-104692493I-2350000J0D01*
G01*
%TO.C,H7*%
X42724001Y-104692493D02*
G75*
G03*
X42724001Y-104692493I-2350000J0D01*
G01*
%TO.C,H6*%
X111324001Y-95092495D02*
G75*
G03*
X111324001Y-95092495I-2350000J0D01*
G01*
%TO.C,H5*%
X261648999Y-66892495D02*
G75*
G03*
X261648999Y-66892495I-2350000J0D01*
G01*
%TO.C,H4*%
X343699000Y-35467493D02*
G75*
G03*
X343699000Y-35467493I-2350000J0D01*
G01*
%TO.C,H3*%
X12049000Y-35467493D02*
G75*
G03*
X12049000Y-35467493I-2350000J0D01*
G01*
%TO.C,H2*%
X206643686Y-9743440D02*
G75*
G03*
X206643686Y-9743440I-2350000J0D01*
G01*
%TO.C,H1*%
X121093687Y-9668441D02*
G75*
G03*
X121093687Y-9668441I-2350000J0D01*
G01*
%TD*%
M02*
