M48
; DRILL file {KiCad (7.0.0-rc2-153-g7d6218acb4)} date Sun Feb 19 18:31:40 2023
; FORMAT={-:-/ absolute / inch / decimal}
; #@! TF.CreationDate,2023-02-19T18:31:40+05:30
; #@! TF.GenerationSoftware,Kicad,Pcbnew,(7.0.0-rc2-153-g7d6218acb4)
; #@! TF.FileFunction,Plated,1,2,PTH
FMAT,2
INCH
; #@! TA.AperFunction,Plated,PTH,ComponentDrill
T1C0.0256
; #@! TA.AperFunction,Plated,PTH,ComponentDrill
T2C0.0354
; #@! TA.AperFunction,Plated,PTH,ComponentDrill
T3C0.0394
; #@! TA.AperFunction,Plated,PTH,ComponentDrill
T4C0.0402
; #@! TA.AperFunction,Plated,PTH,ComponentDrill
T5C0.0579
; #@! TA.AperFunction,Plated,PTH,ComponentDrill
T6C0.1063
%
G90
G05
T1
X11.3562Y-0.7517
X11.4062Y-0.7517
X11.4562Y-0.7517
X11.5062Y-0.7517
T2
X11.9826Y-0.477
X11.9826Y-0.577
X12.7499Y-0.477
X12.7499Y-0.577
X13.5176Y-0.477
X13.5176Y-0.577
T3
X0.5312Y-3.9715
X0.5312Y-4.2785
X0.6875Y-0.2239
X0.6875Y-0.531
X0.6875Y-1.7215
X0.6875Y-2.0285
X0.875Y-2.4715
X0.875Y-2.7785
X0.875Y-4.7215
X0.875Y-5.0285
X0.9688Y-3.2215
X0.9688Y-3.5285
X1.4375Y-1.7215
X1.4375Y-2.0285
X1.75Y-3.9715
X1.75Y-4.2785
X1.8125Y-2.4715
X1.8125Y-2.7785
X1.8125Y-4.7215
X1.8125Y-5.0285
X2.0Y-3.2215
X2.0Y-3.5285
X2.1875Y-0.2215
X2.1875Y-0.5285
X2.1875Y-1.7215
X2.1875Y-2.0285
X2.375Y-3.9715
X2.375Y-4.2785
X2.5625Y-2.4715
X2.5625Y-2.7785
X2.75Y-3.2215
X2.75Y-3.5285
X2.75Y-4.7215
X2.75Y-5.0285
X2.9375Y-0.2242
X2.9375Y-0.5312
X2.9375Y-1.7215
X2.9375Y-2.0285
X3.125Y-3.9715
X3.125Y-4.2785
X3.3125Y-2.4715
X3.3125Y-2.7785
X3.5Y-3.2215
X3.5Y-3.5285
X3.6875Y-0.2215
X3.6875Y-0.5285
X3.6875Y-1.7215
X3.6875Y-2.0285
X3.875Y-3.9715
X3.875Y-4.2785
X4.0625Y-2.4715
X4.0625Y-2.7785
X4.25Y-3.2215
X4.25Y-3.5285
X4.4375Y-0.2215
X4.4375Y-0.5285
X4.4375Y-1.7215
X4.4375Y-2.0285
X4.625Y-3.9715
X4.625Y-4.2785
X4.8125Y-2.4715
X4.8125Y-2.7785
X4.9375Y-0.2215
X4.9375Y-0.5285
X5.0Y-3.2215
X5.0Y-3.5285
X5.1875Y-1.7215
X5.1875Y-2.0285
X5.375Y-3.9715
X5.375Y-4.2785
X5.5625Y-2.4715
X5.5625Y-2.7785
X5.75Y-3.2215
X5.75Y-3.5285
X5.9375Y-1.7215
X5.9375Y-2.0285
X5.9375Y-4.7215
X5.9375Y-5.0285
X6.125Y-3.9715
X6.125Y-4.2785
X6.3125Y-0.2215
X6.3125Y-0.5285
X6.3125Y-2.4715
X6.3125Y-2.7785
X6.5Y-3.2215
X6.5Y-3.5285
X6.6875Y-1.7215
X6.6875Y-2.0285
X6.875Y-3.9715
X6.875Y-4.2785
X7.0625Y-0.2215
X7.0625Y-0.5285
X7.0625Y-1.0625
X7.0625Y-2.4715
X7.0625Y-2.7785
X7.1998Y-1.0225
X7.1998Y-1.1025
X7.25Y-3.2215
X7.25Y-3.5285
X7.4375Y-1.7215
X7.4375Y-2.0285
X7.625Y-3.9715
X7.625Y-4.2785
X7.8125Y-0.2215
X7.8125Y-0.5285
X7.8125Y-2.4715
X7.8125Y-2.7785
X8.0Y-3.2215
X8.0Y-3.5285
X8.1875Y-1.7215
X8.1875Y-2.0285
X8.2812Y-4.7215
X8.2812Y-5.0285
X8.375Y-3.9715
X8.375Y-4.2785
X8.5625Y-2.4715
X8.5625Y-2.7785
X8.75Y-3.2215
X8.75Y-3.5285
X8.9375Y-0.2215
X8.9375Y-0.5285
X8.9375Y-1.7215
X8.9375Y-2.0285
X9.125Y-3.9715
X9.125Y-4.2785
X9.2188Y-4.7215
X9.2188Y-5.0285
X9.3125Y-2.4715
X9.3125Y-2.7785
X9.5Y-3.2215
X9.5Y-3.5285
X9.6875Y-0.2215
X9.6875Y-0.5285
X9.6875Y-1.7215
X9.6875Y-2.0285
X9.6875Y-3.2215
X9.6875Y-3.5285
X10.0625Y-2.4715
X10.0625Y-2.7785
X10.1562Y-4.7215
X10.1562Y-5.0285
X10.4375Y-0.2215
X10.4375Y-0.5285
X10.5312Y-3.9715
X10.5312Y-4.2785
X10.7188Y-3.2215
X10.7188Y-3.5285
X11.0Y-2.4715
X11.0Y-2.7785
X11.0938Y-4.7215
X11.0938Y-5.0285
X11.1875Y-0.2215
X11.1875Y-0.5285
X11.1875Y-1.7215
X11.1875Y-2.0285
X11.1875Y-3.9715
X11.1875Y-4.2785
X11.9826Y-0.6902
X11.9826Y-0.9973
X12.3125Y-1.7215
X12.3125Y-2.0285
X12.3125Y-2.4715
X12.3125Y-2.7785
X12.3125Y-4.7215
X12.3125Y-5.0285
X12.7499Y-0.6902
X12.7499Y-0.9973
X13.0625Y-1.7215
X13.0625Y-2.0285
X13.0625Y-2.4715
X13.0625Y-2.7785
X13.0625Y-3.9715
X13.0625Y-4.2785
X13.0625Y-4.7215
X13.0625Y-5.0285
X13.1875Y-1.7215
X13.1875Y-2.0285
X13.1875Y-2.4715
X13.1875Y-2.7785
X13.1875Y-4.7215
X13.1875Y-5.0285
X13.5176Y-0.6902
X13.5176Y-0.9973
T4
X5.3Y-0.7125
X5.3Y-1.4125
X5.3091Y-0.9625
X5.3091Y-1.0625
X5.3091Y-1.1625
X5.4Y-0.7125
X5.4Y-1.4125
X5.5Y-0.7125
X5.5Y-1.4125
X5.6Y-0.7125
X5.6Y-1.4125
X5.7Y-0.7125
X5.7Y-1.4125
X5.8Y-0.7125
X5.8Y-1.4125
X5.9Y-0.7125
X5.9Y-1.4125
X6.0Y-0.7125
X6.0Y-1.4125
X6.1Y-0.7125
X6.1Y-1.4125
X6.2Y-0.7125
X6.2Y-1.4125
X6.3Y-0.7125
X6.3Y-1.4125
X6.4Y-0.7125
X6.4Y-1.4125
X6.5Y-0.7125
X6.5Y-1.4125
X6.6Y-0.7125
X6.6Y-1.4125
X6.7Y-0.7125
X6.7Y-1.4125
X6.8Y-0.7125
X6.8Y-1.4125
X6.9Y-0.7125
X6.9Y-1.4125
X7.0Y-0.7125
X7.0Y-1.4125
X7.1Y-0.7125
X7.1Y-1.4125
X7.2Y-0.7125
X7.2Y-1.4125
T5
X0.225Y-0.275
X0.225Y-1.775
X0.2766Y-0.2175
X0.2766Y-1.7175
X0.3187Y-3.275
X0.3187Y-4.775
X0.3703Y-3.2175
X0.3703Y-4.7175
X0.4125Y-2.525
X0.4125Y-4.775
X0.4641Y-2.4675
X0.4641Y-4.7175
X0.4734Y-0.1978
X0.4734Y-1.6978
X0.475Y-0.175
X0.475Y-1.675
X0.5062Y-3.275
X0.5578Y-3.2175
X0.5672Y-3.1978
X0.5672Y-4.6978
X0.5687Y-3.175
X0.5687Y-4.675
X0.6609Y-2.4478
X0.6609Y-4.6978
X0.6625Y-2.425
X0.6625Y-4.675
X0.6937Y-4.025
X0.7453Y-3.9675
X0.7547Y-3.1978
X0.7562Y-3.175
X0.9422Y-3.9478
X0.9437Y-3.925
X0.975Y-1.775
X1.0266Y-1.7175
X1.1625Y-4.025
X1.2141Y-3.9675
X1.2234Y-1.6978
X1.225Y-1.675
X1.2562Y-4.775
X1.3078Y-4.7175
X1.35Y-2.525
X1.35Y-4.775
X1.4016Y-2.4675
X1.4016Y-4.7175
X1.4109Y-3.9478
X1.4125Y-3.925
X1.5047Y-4.6978
X1.5062Y-4.675
X1.5375Y-3.275
X1.5891Y-3.2175
X1.5984Y-2.4478
X1.5984Y-4.6978
X1.6Y-2.425
X1.6Y-4.675
X1.725Y-0.275
X1.725Y-1.775
X1.7766Y-0.2175
X1.7766Y-1.7175
X1.7859Y-3.1978
X1.7875Y-3.175
X1.9125Y-4.025
X1.9641Y-3.9675
X1.9734Y-0.1978
X1.9734Y-1.6978
X1.975Y-0.175
X1.975Y-1.675
X2.1Y-2.525
X2.1516Y-2.4675
X2.1609Y-3.9478
X2.1625Y-3.925
X2.1938Y-4.775
X2.2453Y-4.7175
X2.2875Y-3.275
X2.2875Y-4.775
X2.3391Y-3.2175
X2.3391Y-4.7175
X2.3484Y-2.4478
X2.35Y-2.425
X2.4422Y-4.6978
X2.4438Y-4.675
X2.475Y-0.275
X2.475Y-1.775
X2.5266Y-0.2175
X2.5266Y-1.7175
X2.5359Y-3.1978
X2.5359Y-4.6978
X2.5375Y-3.175
X2.5375Y-4.675
X2.6625Y-4.025
X2.7141Y-3.9675
X2.7234Y-0.1978
X2.7234Y-1.6978
X2.725Y-0.175
X2.725Y-1.675
X2.85Y-2.525
X2.9016Y-2.4675
X2.9109Y-3.9478
X2.9125Y-3.925
X3.0375Y-3.275
X3.0891Y-3.2175
X3.0984Y-2.4478
X3.1Y-2.425
X3.225Y-0.275
X3.225Y-1.775
X3.2766Y-0.2175
X3.2766Y-1.7175
X3.2859Y-3.1978
X3.2875Y-3.175
X3.4125Y-4.025
X3.4641Y-3.9675
X3.4734Y-0.1978
X3.4734Y-1.6978
X3.475Y-0.175
X3.475Y-1.675
X3.6Y-2.525
X3.6516Y-2.4675
X3.6609Y-3.9478
X3.6625Y-3.925
X3.7875Y-3.275
X3.8391Y-3.2175
X3.8484Y-2.4478
X3.85Y-2.425
X3.975Y-0.275
X3.975Y-1.775
X4.0266Y-0.2175
X4.0266Y-1.7175
X4.0359Y-3.1978
X4.0375Y-3.175
X4.1625Y-4.025
X4.2141Y-3.9675
X4.2234Y-0.1978
X4.2234Y-1.6978
X4.225Y-0.175
X4.225Y-1.675
X4.35Y-2.525
X4.4016Y-2.4675
X4.4109Y-3.9478
X4.4125Y-3.925
X4.5375Y-3.275
X4.5891Y-3.2175
X4.5984Y-2.4478
X4.6Y-2.425
X4.725Y-1.775
X4.7766Y-1.7175
X4.7859Y-3.1978
X4.7875Y-3.175
X4.9125Y-4.025
X4.9641Y-3.9675
X4.9734Y-1.6978
X4.975Y-1.675
X5.0062Y-4.775
X5.0578Y-4.7175
X5.1Y-0.275
X5.1Y-2.525
X5.1516Y-0.2175
X5.1516Y-2.4675
X5.1609Y-3.9478
X5.1625Y-3.925
X5.2547Y-4.6978
X5.2562Y-4.675
X5.2875Y-3.275
X5.3391Y-3.2175
X5.3484Y-0.1978
X5.3484Y-2.4478
X5.35Y-0.175
X5.35Y-2.425
X5.475Y-1.775
X5.475Y-4.775
X5.5266Y-1.7175
X5.5266Y-4.7175
X5.5359Y-3.1978
X5.5375Y-3.175
X5.6625Y-4.025
X5.7141Y-3.9675
X5.7234Y-1.6978
X5.7234Y-4.6978
X5.725Y-1.675
X5.725Y-4.675
X5.85Y-0.275
X5.85Y-2.525
X5.9016Y-0.2175
X5.9016Y-2.4675
X5.9109Y-3.9478
X5.9125Y-3.925
X6.0375Y-3.275
X6.0891Y-3.2175
X6.0984Y-0.1978
X6.0984Y-2.4478
X6.1Y-0.175
X6.1Y-2.425
X6.225Y-1.775
X6.2766Y-1.7175
X6.2859Y-3.1978
X6.2875Y-3.175
X6.4125Y-4.025
X6.4641Y-3.9675
X6.4734Y-1.6978
X6.475Y-1.675
X6.6Y-0.275
X6.6Y-2.525
X6.6516Y-0.2175
X6.6516Y-2.4675
X6.6609Y-3.9478
X6.6625Y-3.925
X6.7875Y-3.275
X6.8391Y-3.2175
X6.8484Y-0.1978
X6.8484Y-2.4478
X6.85Y-0.175
X6.85Y-2.425
X6.975Y-1.775
X7.0266Y-1.7175
X7.0359Y-3.1978
X7.0375Y-3.175
X7.1625Y-4.025
X7.2141Y-3.9675
X7.2234Y-1.6978
X7.225Y-1.675
X7.35Y-0.275
X7.35Y-2.525
X7.4016Y-0.2175
X7.4016Y-2.4675
X7.4109Y-3.9478
X7.4125Y-3.925
X7.5375Y-3.275
X7.5891Y-3.2175
X7.5984Y-0.1978
X7.5984Y-2.4478
X7.6Y-0.175
X7.6Y-2.425
X7.725Y-1.775
X7.7766Y-1.7175
X7.7859Y-3.1978
X7.7875Y-3.175
X7.8187Y-4.775
X7.8703Y-4.7175
X7.9125Y-4.025
X7.9641Y-3.9675
X7.9734Y-1.6978
X7.975Y-1.675
X8.0672Y-4.6978
X8.0687Y-4.675
X8.1Y-2.525
X8.1516Y-2.4675
X8.1609Y-3.9478
X8.1625Y-3.925
X8.2875Y-3.275
X8.3391Y-3.2175
X8.3484Y-2.4478
X8.35Y-2.425
X8.475Y-0.275
X8.475Y-1.775
X8.5266Y-0.2175
X8.5266Y-1.7175
X8.5359Y-3.1978
X8.5375Y-3.175
X8.6625Y-4.025
X8.6625Y-4.775
X8.7141Y-3.9675
X8.7141Y-4.7175
X8.7234Y-0.1978
X8.7234Y-1.6978
X8.725Y-0.175
X8.725Y-1.675
X8.7562Y-4.775
X8.8078Y-4.7175
X8.85Y-2.525
X8.9016Y-2.4675
X8.9109Y-3.9478
X8.9109Y-4.6978
X8.9125Y-3.925
X8.9125Y-4.675
X9.0047Y-4.6978
X9.0062Y-4.675
X9.0375Y-3.275
X9.0891Y-3.2175
X9.0984Y-2.4478
X9.1Y-2.425
X9.225Y-0.275
X9.225Y-1.775
X9.2766Y-0.2175
X9.2766Y-1.7175
X9.2859Y-3.1978
X9.2875Y-3.175
X9.4734Y-0.1978
X9.4734Y-1.6978
X9.475Y-0.175
X9.475Y-1.675
X9.6Y-2.525
X9.6Y-4.775
X9.6516Y-2.4675
X9.6516Y-4.7175
X9.6937Y-4.025
X9.6937Y-4.775
X9.7453Y-3.9675
X9.7453Y-4.7175
X9.8484Y-2.4478
X9.8484Y-4.6978
X9.85Y-2.425
X9.85Y-4.675
X9.9422Y-3.9478
X9.9422Y-4.6978
X9.9437Y-3.925
X9.9437Y-4.675
X9.975Y-0.275
X9.975Y-1.775
X10.0266Y-0.2175
X10.0266Y-1.7175
X10.0687Y-4.025
X10.1203Y-3.9675
X10.2234Y-0.1978
X10.2234Y-1.6978
X10.225Y-0.175
X10.225Y-1.675
X10.2562Y-3.275
X10.3078Y-3.2175
X10.3172Y-3.9478
X10.3187Y-3.925
X10.35Y-1.775
X10.4016Y-1.7175
X10.5047Y-3.1978
X10.5062Y-3.175
X10.5375Y-2.525
X10.5375Y-4.775
X10.5891Y-2.4675
X10.5891Y-4.7175
X10.5984Y-1.6978
X10.6Y-1.675
X10.6312Y-4.775
X10.6828Y-4.7175
X10.725Y-0.275
X10.725Y-1.775
X10.725Y-4.025
X10.7766Y-0.2175
X10.7766Y-1.7175
X10.7766Y-3.9675
X10.7859Y-2.4478
X10.7859Y-4.6978
X10.7875Y-2.425
X10.7875Y-4.675
X10.8797Y-4.6978
X10.8812Y-4.675
X10.9734Y-0.1978
X10.9734Y-1.6978
X10.9734Y-3.9478
X10.975Y-0.175
X10.975Y-1.675
X10.975Y-3.925
X11.85Y-1.775
X11.85Y-2.525
X11.85Y-4.775
X11.9016Y-1.7175
X11.9016Y-2.4675
X11.9016Y-4.7175
X12.0984Y-1.6978
X12.0984Y-2.4478
X12.0984Y-4.6978
X12.1Y-1.675
X12.1Y-2.425
X12.1Y-4.675
X12.6Y-1.775
X12.6Y-2.525
X12.6Y-4.025
X12.6Y-4.775
X12.6516Y-1.7175
X12.6516Y-2.4675
X12.6516Y-3.9675
X12.6516Y-4.7175
X12.8484Y-1.6978
X12.8484Y-2.4478
X12.8484Y-3.9478
X12.8484Y-4.6978
X12.85Y-1.675
X12.85Y-2.425
X12.85Y-3.925
X12.85Y-4.675
X13.35Y-1.775
X13.35Y-2.525
X13.35Y-4.775
X13.4016Y-1.7175
X13.4016Y-2.4675
X13.4016Y-4.7175
X13.5984Y-1.6978
X13.5984Y-2.4478
X13.5984Y-4.6978
X13.6Y-1.675
X13.6Y-2.425
X13.6Y-4.675
T6
X0.3819Y-1.3964
X1.5895Y-4.1218
X4.2903Y-3.7438
X4.6749Y-0.3806
X8.0431Y-0.3836
X9.4118Y-4.1218
X10.2086Y-2.6336
X11.2608Y-4.8757
X13.4065Y-4.3806
X13.4389Y-1.3964
T0
M30
