M48
; DRILL file {KiCad (7.0.0-rc2-153-g7d6218acb4)} date Sun Feb 19 18:31:40 2023
; FORMAT={-:-/ absolute / inch / decimal}
; #@! TF.CreationDate,2023-02-19T18:31:40+05:30
; #@! TF.GenerationSoftware,Kicad,Pcbnew,(7.0.0-rc2-153-g7d6218acb4)
; #@! TF.FileFunction,NonPlated,1,2,NPTH
FMAT,2
INCH
; #@! TA.AperFunction,NonPlated,NPTH,ComponentDrill
T1C0.0689
; #@! TA.AperFunction,NonPlated,NPTH,ComponentDrill
T2C0.1200
; #@! TA.AperFunction,NonPlated,NPTH,ComponentDrill
T3C0.1570
%
G90
G05
T1
X0.175Y-0.375
X0.175Y-1.875
X0.2687Y-3.375
X0.2687Y-4.875
X0.3625Y-2.625
X0.3625Y-4.875
X0.4562Y-3.375
X0.575Y-0.375
X0.575Y-1.875
X0.6437Y-4.125
X0.6687Y-3.375
X0.6687Y-4.875
X0.7625Y-2.625
X0.7625Y-4.875
X0.8562Y-3.375
X0.925Y-1.875
X1.0437Y-4.125
X1.1125Y-4.125
X1.2063Y-4.875
X1.3Y-2.625
X1.3Y-4.875
X1.325Y-1.875
X1.4875Y-3.375
X1.5125Y-4.125
X1.6062Y-4.875
X1.675Y-0.375
X1.675Y-1.875
X1.7Y-2.625
X1.7Y-4.875
X1.8625Y-4.125
X1.8875Y-3.375
X2.05Y-2.625
X2.075Y-0.375
X2.075Y-1.875
X2.1437Y-4.875
X2.2375Y-3.375
X2.2375Y-4.875
X2.2625Y-4.125
X2.425Y-0.375
X2.425Y-1.875
X2.45Y-2.625
X2.5437Y-4.875
X2.6125Y-4.125
X2.6375Y-3.375
X2.6375Y-4.875
X2.8Y-2.625
X2.825Y-0.375
X2.825Y-1.875
X2.9875Y-3.375
X3.0125Y-4.125
X3.175Y-0.375
X3.175Y-1.875
X3.2Y-2.625
X3.3625Y-4.125
X3.3875Y-3.375
X3.55Y-2.625
X3.575Y-0.375
X3.575Y-1.875
X3.7375Y-3.375
X3.7625Y-4.125
X3.925Y-0.375
X3.925Y-1.875
X3.95Y-2.625
X4.1125Y-4.125
X4.1375Y-3.375
X4.3Y-2.625
X4.325Y-0.375
X4.325Y-1.875
X4.4875Y-3.375
X4.5125Y-4.125
X4.675Y-1.875
X4.7Y-2.625
X4.8625Y-4.125
X4.8875Y-3.375
X4.9562Y-4.875
X5.05Y-0.375
X5.05Y-2.625
X5.075Y-1.875
X5.2375Y-3.375
X5.2625Y-4.125
X5.3563Y-4.875
X5.425Y-1.875
X5.425Y-4.875
X5.45Y-0.375
X5.45Y-2.625
X5.6125Y-4.125
X5.6375Y-3.375
X5.8Y-0.375
X5.8Y-2.625
X5.825Y-1.875
X5.825Y-4.875
X5.9875Y-3.375
X6.0125Y-4.125
X6.175Y-1.875
X6.2Y-0.375
X6.2Y-2.625
X6.3625Y-4.125
X6.3875Y-3.375
X6.55Y-0.375
X6.55Y-2.625
X6.575Y-1.875
X6.7375Y-3.375
X6.7625Y-4.125
X6.925Y-1.875
X6.95Y-0.375
X6.95Y-2.625
X7.1125Y-4.125
X7.1375Y-3.375
X7.3Y-0.375
X7.3Y-2.625
X7.325Y-1.875
X7.4875Y-3.375
X7.5125Y-4.125
X7.675Y-1.875
X7.7Y-0.375
X7.7Y-2.625
X7.7687Y-4.875
X7.8625Y-4.125
X7.8875Y-3.375
X8.05Y-2.625
X8.075Y-1.875
X8.1687Y-4.875
X8.2375Y-3.375
X8.2625Y-4.125
X8.425Y-0.375
X8.425Y-1.875
X8.45Y-2.625
X8.6125Y-4.125
X8.6125Y-4.875
X8.6375Y-3.375
X8.7062Y-4.875
X8.8Y-2.625
X8.825Y-0.375
X8.825Y-1.875
X8.9875Y-3.375
X9.0125Y-4.125
X9.0125Y-4.875
X9.1062Y-4.875
X9.175Y-0.375
X9.175Y-1.875
X9.2Y-2.625
X9.3875Y-3.375
X9.55Y-2.625
X9.55Y-4.875
X9.575Y-0.375
X9.575Y-1.875
X9.6437Y-4.125
X9.6437Y-4.875
X9.925Y-0.375
X9.925Y-1.875
X9.95Y-2.625
X9.95Y-4.875
X10.0187Y-4.125
X10.0437Y-4.125
X10.0437Y-4.875
X10.2062Y-3.375
X10.3Y-1.875
X10.325Y-0.375
X10.325Y-1.875
X10.4187Y-4.125
X10.4875Y-2.625
X10.4875Y-4.875
X10.5812Y-4.875
X10.6062Y-3.375
X10.675Y-0.375
X10.675Y-1.875
X10.675Y-4.125
X10.7Y-1.875
X10.8875Y-2.625
X10.8875Y-4.875
X10.9812Y-4.875
X11.075Y-0.375
X11.075Y-1.875
X11.075Y-4.125
X11.8Y-1.875
X11.8Y-2.625
X11.8Y-4.875
X12.2Y-1.875
X12.2Y-2.625
X12.2Y-4.875
X12.55Y-1.875
X12.55Y-2.625
X12.55Y-4.125
X12.55Y-4.875
X12.95Y-1.875
X12.95Y-2.625
X12.95Y-4.125
X12.95Y-4.875
X13.3Y-1.875
X13.3Y-2.625
X13.3Y-4.875
X13.7Y-1.875
X13.7Y-2.625
X13.7Y-4.875
T2
X0.3737Y-3.85
X1.3137Y-3.85
X3.1877Y-5.15
X3.375Y-5.15
X7.1247Y-5.15
X7.875Y-5.15
X9.7487Y-3.85
X9.9362Y-3.65
X10.03Y-1.6
X10.6888Y-3.85
X10.8763Y-3.65
X10.97Y-1.6
T3
X0.3737Y-4.45
X0.375Y-0.375
X0.375Y-1.875
X0.4688Y-3.375
X0.4688Y-4.875
X0.5625Y-2.625
X0.5625Y-4.875
X0.6562Y-3.375
X0.8438Y-4.125
X1.125Y-1.875
X1.3125Y-4.125
X1.3137Y-4.45
X1.4062Y-4.875
X1.5Y-2.625
X1.5Y-4.875
X1.6875Y-3.375
X1.875Y-0.375
X1.875Y-1.875
X2.0625Y-4.125
X2.25Y-2.625
X2.3438Y-4.875
X2.4375Y-3.375
X2.4375Y-4.875
X2.625Y-0.375
X2.625Y-1.875
X2.8125Y-4.125
X3.0Y-2.625
X3.1875Y-3.375
X3.1877Y-4.55
X3.375Y-0.375
X3.375Y-1.875
X3.375Y-4.55
X3.5625Y-4.125
X3.75Y-2.625
X3.9375Y-3.375
X4.125Y-0.375
X4.125Y-1.875
X4.3125Y-4.125
X4.5Y-2.625
X4.6875Y-3.375
X4.875Y-1.875
X5.0625Y-4.125
X5.1562Y-4.875
X5.25Y-0.375
X5.25Y-2.625
X5.4375Y-3.375
X5.625Y-1.875
X5.625Y-4.875
X5.8125Y-4.125
X6.0Y-0.375
X6.0Y-2.625
X6.1875Y-3.375
X6.375Y-1.875
X6.5625Y-4.125
X6.75Y-0.375
X6.75Y-2.625
X6.9375Y-3.375
X7.1247Y-4.55
X7.125Y-1.875
X7.3125Y-4.125
X7.5Y-0.375
X7.5Y-2.625
X7.6875Y-3.375
X7.875Y-1.875
X7.875Y-4.55
X7.9688Y-4.875
X8.0625Y-4.125
X8.25Y-2.625
X8.4375Y-3.375
X8.625Y-0.375
X8.625Y-1.875
X8.8125Y-4.125
X8.8125Y-4.875
X8.9062Y-4.875
X9.0Y-2.625
X9.1875Y-3.375
X9.375Y-0.375
X9.375Y-1.875
X9.7487Y-4.45
X9.75Y-2.625
X9.75Y-4.875
X9.8438Y-4.125
X9.8438Y-4.875
X9.9362Y-3.05
X10.03Y-2.2
X10.125Y-0.375
X10.125Y-1.875
X10.2188Y-4.125
X10.4062Y-3.375
X10.5Y-1.875
X10.6875Y-2.625
X10.6875Y-4.875
X10.6888Y-4.45
X10.7812Y-4.875
X10.875Y-0.375
X10.875Y-1.875
X10.875Y-4.125
X10.8763Y-3.05
X10.97Y-2.2
X12.0Y-1.875
X12.0Y-2.625
X12.0Y-4.875
X12.75Y-1.875
X12.75Y-2.625
X12.75Y-4.125
X12.75Y-4.875
X13.5Y-1.875
X13.5Y-2.625
X13.5Y-4.875
T0
M30
