%TF.GenerationSoftware,KiCad,Pcbnew,(7.0.0-rc2-153-g7d6218acb4)*%
%TF.CreationDate,2023-02-19T18:31:40+05:30*%
%TF.ProjectId,ncr-pcb,6e63722d-7063-4622-9e6b-696361645f70,rev?*%
%TF.SameCoordinates,Original*%
%TF.FileFunction,Soldermask,Top*%
%TF.FilePolarity,Negative*%
%FSLAX46Y46*%
G04 Gerber Fmt 4.6, Leading zero omitted, Abs format (unit mm)*
G04 Created by KiCad (PCBNEW (7.0.0-rc2-153-g7d6218acb4)) date 2023-02-19 18:31:40*
%MOMM*%
%LPD*%
G01*
G04 APERTURE LIST*
G04 Aperture macros list*
%AMRoundRect*
0 Rectangle with rounded corners*
0 $1 Rounding radius*
0 $2 $3 $4 $5 $6 $7 $8 $9 X,Y pos of 4 corners*
0 Add a 4 corners polygon primitive as box body*
4,1,4,$2,$3,$4,$5,$6,$7,$8,$9,$2,$3,0*
0 Add four circle primitives for the rounded corners*
1,1,$1+$1,$2,$3*
1,1,$1+$1,$4,$5*
1,1,$1+$1,$6,$7*
1,1,$1+$1,$8,$9*
0 Add four rect primitives between the rounded corners*
20,1,$1+$1,$2,$3,$4,$5,0*
20,1,$1+$1,$4,$5,$6,$7,0*
20,1,$1+$1,$6,$7,$8,$9,0*
20,1,$1+$1,$8,$9,$2,$3,0*%
G04 Aperture macros list end*
%ADD10R,1.000000X1.000000*%
%ADD11O,1.000000X1.000000*%
%ADD12C,4.700000*%
%ADD13C,1.600000*%
%ADD14R,1.800000X1.800000*%
%ADD15C,1.800000*%
%ADD16RoundRect,0.437500X0.437500X-0.437500X0.437500X0.437500X-0.437500X0.437500X-0.437500X-0.437500X0*%
%ADD17R,1.600000X1.600000*%
%ADD18C,1.750000*%
%ADD19C,3.987800*%
%ADD20C,3.048000*%
%ADD21O,1.700000X1.700000*%
%ADD22R,1.700000X1.700000*%
G04 APERTURE END LIST*
D10*
%TO.C,J1*%
X292258749Y-19093749D03*
D11*
X290988749Y-19093749D03*
X289718749Y-19093749D03*
X288448749Y-19093749D03*
%TD*%
D12*
%TO.C,H10*%
X340524000Y-111266989D03*
%TD*%
%TO.C,H9*%
X286024000Y-123842496D03*
%TD*%
%TO.C,H8*%
X239059714Y-104692493D03*
%TD*%
%TO.C,H7*%
X40374001Y-104692493D03*
%TD*%
%TO.C,H6*%
X108974001Y-95092495D03*
%TD*%
%TO.C,H5*%
X259298999Y-66892495D03*
%TD*%
%TO.C,H4*%
X341349000Y-35467493D03*
%TD*%
%TO.C,H3*%
X9699000Y-35467493D03*
%TD*%
%TO.C,H2*%
X204293686Y-9743440D03*
%TD*%
%TO.C,H1*%
X118743687Y-9668441D03*
%TD*%
D13*
%TO.C,R3*%
X343346001Y-17531250D03*
X343346001Y-25331250D03*
%TD*%
%TO.C,R2*%
X323848001Y-17531250D03*
X323848001Y-25331250D03*
%TD*%
%TO.C,R1*%
X304357001Y-17531250D03*
X304357001Y-25331250D03*
%TD*%
D14*
%TO.C,LED3*%
X343346000Y-12115551D03*
D15*
X343346001Y-14655552D03*
%TD*%
D14*
%TO.C,LED2*%
X323848000Y-12115551D03*
D15*
X323848001Y-14655552D03*
%TD*%
D14*
%TO.C,LED1*%
X304357000Y-12115551D03*
D15*
X304357001Y-14655552D03*
%TD*%
D16*
%TO.C,*%
X179387500Y-26987500D03*
%TD*%
%TO.C,RPI0*%
X182875000Y-25971500D03*
X182875000Y-28003500D03*
%TD*%
D17*
%TO.C,D1*%
X17462499Y-13487499D03*
D13*
X17462500Y-5687500D03*
%TD*%
D17*
%TO.C,D3*%
X55562499Y-13424999D03*
D13*
X55562500Y-5625000D03*
%TD*%
D17*
%TO.C,D4*%
X74612499Y-13493749D03*
D13*
X74612500Y-5693750D03*
%TD*%
D17*
%TO.C,D5*%
X93662499Y-13424999D03*
D13*
X93662500Y-5625000D03*
%TD*%
D17*
%TO.C,D6*%
X112712499Y-13424999D03*
D13*
X112712500Y-5625000D03*
%TD*%
D17*
%TO.C,D7*%
X125412499Y-13424999D03*
D13*
X125412500Y-5625000D03*
%TD*%
D17*
%TO.C,D8*%
X160337499Y-13424999D03*
D13*
X160337500Y-5625000D03*
%TD*%
D17*
%TO.C,D9*%
X179387499Y-13424999D03*
D13*
X179387500Y-5625000D03*
%TD*%
D17*
%TO.C,D10*%
X198437499Y-13424999D03*
D13*
X198437500Y-5625000D03*
%TD*%
D17*
%TO.C,D11*%
X227012499Y-13424999D03*
D13*
X227012500Y-5625000D03*
%TD*%
D17*
%TO.C,D12*%
X246062499Y-13424999D03*
D13*
X246062500Y-5625000D03*
%TD*%
D17*
%TO.C,D13*%
X265112499Y-13424999D03*
D13*
X265112500Y-5625000D03*
%TD*%
D17*
%TO.C,D14*%
X284162499Y-13424999D03*
D13*
X284162500Y-5625000D03*
%TD*%
D17*
%TO.C,D18*%
X17462499Y-51524999D03*
D13*
X17462500Y-43725000D03*
%TD*%
D17*
%TO.C,D19*%
X36512499Y-51524999D03*
D13*
X36512500Y-43725000D03*
%TD*%
D17*
%TO.C,D20*%
X55562499Y-51524999D03*
D13*
X55562500Y-43725000D03*
%TD*%
D17*
%TO.C,D21*%
X74612499Y-51524999D03*
D13*
X74612500Y-43725000D03*
%TD*%
D17*
%TO.C,D22*%
X93662499Y-51524999D03*
D13*
X93662500Y-43725000D03*
%TD*%
D17*
%TO.C,D23*%
X112712499Y-51524999D03*
D13*
X112712500Y-43725000D03*
%TD*%
D17*
%TO.C,D24*%
X131762499Y-51524999D03*
D13*
X131762500Y-43725000D03*
%TD*%
D17*
%TO.C,D25*%
X150812499Y-51524999D03*
D13*
X150812500Y-43725000D03*
%TD*%
D17*
%TO.C,D26*%
X169862499Y-51524999D03*
D13*
X169862500Y-43725000D03*
%TD*%
D17*
%TO.C,D27*%
X188912499Y-51524999D03*
D13*
X188912500Y-43725000D03*
%TD*%
D17*
%TO.C,D28*%
X207962499Y-51524999D03*
D13*
X207962500Y-43725000D03*
%TD*%
D17*
%TO.C,D29*%
X227012499Y-51524999D03*
D13*
X227012500Y-43725000D03*
%TD*%
D17*
%TO.C,D30*%
X246062499Y-51524999D03*
D13*
X246062500Y-43725000D03*
%TD*%
D17*
%TO.C,D31*%
X284162499Y-51524999D03*
D13*
X284162500Y-43725000D03*
%TD*%
D17*
%TO.C,D32*%
X312737499Y-51524999D03*
D13*
X312737500Y-43725000D03*
%TD*%
D17*
%TO.C,D33*%
X331787499Y-51524999D03*
D13*
X331787500Y-43725000D03*
%TD*%
%TO.C,D34*%
X334962500Y-43725000D03*
D17*
X334962499Y-51524999D03*
%TD*%
%TO.C,D35*%
X22224999Y-70574999D03*
D13*
X22225000Y-62775000D03*
%TD*%
D17*
%TO.C,D36*%
X24606249Y-89624999D03*
D13*
X24606250Y-81825000D03*
%TD*%
D17*
%TO.C,D37*%
X46037499Y-70574999D03*
D13*
X46037500Y-62775000D03*
%TD*%
D17*
%TO.C,D38*%
X50799999Y-89624999D03*
D13*
X50800000Y-81825000D03*
%TD*%
D17*
%TO.C,D39*%
X65087499Y-70574999D03*
D13*
X65087500Y-62775000D03*
%TD*%
D17*
%TO.C,D40*%
X69849999Y-89624999D03*
D13*
X69850000Y-81825000D03*
%TD*%
D17*
%TO.C,D41*%
X84137499Y-70574999D03*
D13*
X84137500Y-62775000D03*
%TD*%
D17*
%TO.C,D42*%
X88899999Y-89624999D03*
D13*
X88900000Y-81825000D03*
%TD*%
D17*
%TO.C,D43*%
X103187499Y-70574999D03*
D13*
X103187500Y-62775000D03*
%TD*%
D17*
%TO.C,D44*%
X107949999Y-89624999D03*
D13*
X107950000Y-81825000D03*
%TD*%
D17*
%TO.C,D45*%
X122237499Y-70574999D03*
D13*
X122237500Y-62775000D03*
%TD*%
D17*
%TO.C,D46*%
X126999999Y-89624999D03*
D13*
X127000000Y-81825000D03*
%TD*%
D17*
%TO.C,D47*%
X141287499Y-70574999D03*
D13*
X141287500Y-62775000D03*
%TD*%
D17*
%TO.C,D48*%
X146049999Y-89624999D03*
D13*
X146050000Y-81825000D03*
%TD*%
D17*
%TO.C,D49*%
X160337499Y-70574999D03*
D13*
X160337500Y-62775000D03*
%TD*%
D17*
%TO.C,D50*%
X165099999Y-89624999D03*
D13*
X165100000Y-81825000D03*
%TD*%
D17*
%TO.C,D51*%
X179387499Y-70574999D03*
D13*
X179387500Y-62775000D03*
%TD*%
D17*
%TO.C,D52*%
X184149999Y-89624999D03*
D13*
X184150000Y-81825000D03*
%TD*%
D17*
%TO.C,D53*%
X198437499Y-70574999D03*
D13*
X198437500Y-62775000D03*
%TD*%
D17*
%TO.C,D54*%
X203199999Y-89624999D03*
D13*
X203200000Y-81825000D03*
%TD*%
D17*
%TO.C,D55*%
X217487499Y-70574999D03*
D13*
X217487500Y-62775000D03*
%TD*%
D17*
%TO.C,D56*%
X222249999Y-89624999D03*
D13*
X222250000Y-81825000D03*
%TD*%
D17*
%TO.C,D57*%
X236537499Y-70574999D03*
D13*
X236537500Y-62775000D03*
%TD*%
D17*
%TO.C,D58*%
X241299999Y-89624999D03*
D13*
X241300000Y-81825000D03*
%TD*%
D17*
%TO.C,D59*%
X255587499Y-70574999D03*
D13*
X255587500Y-62775000D03*
%TD*%
D17*
%TO.C,D60*%
X246062499Y-89624999D03*
D13*
X246062500Y-81825000D03*
%TD*%
D17*
%TO.C,D61*%
X279399999Y-70574999D03*
D13*
X279400000Y-62775000D03*
%TD*%
D17*
%TO.C,D62*%
X272256249Y-89624999D03*
D13*
X272256250Y-81825000D03*
%TD*%
D17*
%TO.C,D63*%
X312737499Y-70574999D03*
D13*
X312737500Y-62775000D03*
%TD*%
D17*
%TO.C,D65*%
X331787499Y-70574999D03*
D13*
X331787500Y-62775000D03*
%TD*%
D17*
%TO.C,D67*%
X334962499Y-70574999D03*
D13*
X334962500Y-62775000D03*
%TD*%
D17*
%TO.C,D69*%
X13493749Y-108674999D03*
D13*
X13493750Y-100875000D03*
%TD*%
D17*
%TO.C,D70*%
X22224999Y-127724999D03*
D13*
X22225000Y-119925000D03*
%TD*%
D17*
%TO.C,D71*%
X44449999Y-108674999D03*
D13*
X44450000Y-100875000D03*
%TD*%
D17*
%TO.C,D72*%
X46037499Y-127724999D03*
D13*
X46037500Y-119925000D03*
%TD*%
D17*
%TO.C,D73*%
X60324999Y-108674999D03*
D13*
X60325000Y-100875000D03*
%TD*%
D17*
%TO.C,D74*%
X69849999Y-127724999D03*
D13*
X69850000Y-119925000D03*
%TD*%
D17*
%TO.C,D75*%
X79374999Y-108674999D03*
D13*
X79375000Y-100875000D03*
%TD*%
D17*
%TO.C,D77*%
X98424999Y-108674999D03*
D13*
X98425000Y-100875000D03*
%TD*%
D17*
%TO.C,D79*%
X117474999Y-108674999D03*
D13*
X117475000Y-100875000D03*
%TD*%
D17*
%TO.C,D81*%
X136524999Y-108674999D03*
D13*
X136525000Y-100875000D03*
%TD*%
D17*
%TO.C,D83*%
X155574999Y-108674999D03*
D13*
X155575000Y-100875000D03*
%TD*%
D17*
%TO.C,D84*%
X150812499Y-127724999D03*
D13*
X150812500Y-119925000D03*
%TD*%
D17*
%TO.C,D85*%
X174624999Y-108674999D03*
D13*
X174625000Y-100875000D03*
%TD*%
D17*
%TO.C,D87*%
X193674999Y-108674999D03*
D13*
X193675000Y-100875000D03*
%TD*%
D17*
%TO.C,D89*%
X212724999Y-108674999D03*
D13*
X212725000Y-100875000D03*
%TD*%
D17*
%TO.C,D90*%
X210343749Y-127724999D03*
D13*
X210343750Y-119925000D03*
%TD*%
D17*
%TO.C,D91*%
X231774999Y-108674999D03*
D13*
X231775000Y-100875000D03*
%TD*%
D17*
%TO.C,D92*%
X234156249Y-127724999D03*
D13*
X234156250Y-119925000D03*
%TD*%
D17*
%TO.C,D93*%
X267493749Y-108674999D03*
D13*
X267493750Y-100875000D03*
%TD*%
D17*
%TO.C,D94*%
X257968749Y-127724999D03*
D13*
X257968750Y-119925000D03*
%TD*%
D17*
%TO.C,D95*%
X284162499Y-108674999D03*
D13*
X284162500Y-100875000D03*
%TD*%
D17*
%TO.C,D96*%
X281781249Y-127724999D03*
D13*
X281781250Y-119925000D03*
%TD*%
D17*
%TO.C,D98*%
X312737499Y-127724999D03*
D13*
X312737500Y-119925000D03*
%TD*%
D17*
%TO.C,D99*%
X331787499Y-108674999D03*
D13*
X331787500Y-100875000D03*
%TD*%
D17*
%TO.C,D100*%
X331787499Y-127724999D03*
D13*
X331787500Y-119925000D03*
%TD*%
D17*
%TO.C,D102*%
X334962499Y-127724999D03*
D13*
X334962500Y-119925000D03*
%TD*%
D18*
%TO.C,MX35*%
X9207500Y-66675000D03*
D19*
X14287500Y-66675000D03*
D18*
X19367500Y-66675000D03*
%TD*%
%TO.C,MX36*%
X11588750Y-85725000D03*
D19*
X16668750Y-85725000D03*
D18*
X21748750Y-85725000D03*
%TD*%
%TO.C,MX61*%
X266382500Y-66675000D03*
D19*
X271462500Y-66675000D03*
D18*
X276542500Y-66675000D03*
%TD*%
D19*
%TO.C,MX62*%
X252380750Y-77470000D03*
D20*
X252380750Y-92710000D03*
D18*
X259238750Y-85725000D03*
D19*
X264318750Y-85725000D03*
D18*
X269398750Y-85725000D03*
D19*
X276256750Y-77470000D03*
D20*
X276256750Y-92710000D03*
%TD*%
D18*
%TO.C,MX64*%
X6826250Y-85725000D03*
D19*
X11906250Y-85725000D03*
D18*
X16986250Y-85725000D03*
%TD*%
D20*
%TO.C,MX66*%
X254762000Y-40640000D03*
D19*
X254762000Y-55880000D03*
D18*
X261620000Y-47625000D03*
D19*
X266700000Y-47625000D03*
D18*
X271780000Y-47625000D03*
D20*
X278638000Y-40640000D03*
D19*
X278638000Y-55880000D03*
%TD*%
D20*
%TO.C,MX69*%
X9493250Y-97790000D03*
D19*
X9493250Y-113030000D03*
D18*
X16351250Y-104775000D03*
D19*
X21431250Y-104775000D03*
D18*
X26511250Y-104775000D03*
D20*
X33369250Y-97790000D03*
D19*
X33369250Y-113030000D03*
%TD*%
D18*
%TO.C,MX70*%
X9207500Y-123825000D03*
D19*
X14287500Y-123825000D03*
D18*
X19367500Y-123825000D03*
%TD*%
%TO.C,MX74*%
X56832500Y-123825000D03*
D19*
X61912500Y-123825000D03*
D18*
X66992500Y-123825000D03*
%TD*%
%TO.C,MX76*%
X6826250Y-123825000D03*
D19*
X11906250Y-123825000D03*
D18*
X16986250Y-123825000D03*
%TD*%
%TO.C,MX78*%
X30638750Y-123825000D03*
D19*
X35718750Y-123825000D03*
D18*
X40798750Y-123825000D03*
%TD*%
%TO.C,MX80*%
X54451250Y-123825000D03*
D19*
X59531250Y-123825000D03*
D18*
X64611250Y-123825000D03*
%TD*%
D19*
%TO.C,MX82*%
X80968850Y-115570000D03*
D20*
X80968850Y-130810000D03*
D18*
X125888750Y-123825000D03*
D19*
X130968750Y-123825000D03*
D18*
X136048750Y-123825000D03*
D19*
X180968650Y-115570000D03*
D20*
X180968650Y-130810000D03*
%TD*%
D19*
%TO.C,MX84*%
X85725000Y-115570000D03*
D20*
X85725000Y-130810000D03*
D18*
X137795000Y-123825000D03*
D19*
X142875000Y-123825000D03*
D18*
X147955000Y-123825000D03*
D19*
X200025000Y-115570000D03*
D20*
X200025000Y-130810000D03*
%TD*%
D18*
%TO.C,MX86*%
X221138750Y-123825000D03*
D19*
X226218750Y-123825000D03*
D18*
X231298750Y-123825000D03*
%TD*%
%TO.C,MX88*%
X244951250Y-123825000D03*
D19*
X250031250Y-123825000D03*
D18*
X255111250Y-123825000D03*
%TD*%
%TO.C,MX90*%
X197326250Y-123825000D03*
D19*
X202406250Y-123825000D03*
D18*
X207486250Y-123825000D03*
%TD*%
%TO.C,MX92*%
X218757500Y-123825000D03*
D19*
X223837500Y-123825000D03*
D18*
X228917500Y-123825000D03*
%TD*%
D20*
%TO.C,MX93*%
X247618250Y-97790000D03*
D19*
X247618250Y-113030000D03*
D18*
X254476250Y-104775000D03*
D19*
X259556250Y-104775000D03*
D18*
X264636250Y-104775000D03*
D20*
X271494250Y-97790000D03*
D19*
X271494250Y-113030000D03*
%TD*%
D18*
%TO.C,MX96*%
X266382500Y-123825000D03*
D19*
X271462500Y-123825000D03*
D18*
X276542500Y-123825000D03*
%TD*%
%TO.C,MX97*%
X268763750Y-123825000D03*
D19*
X273843750Y-123825000D03*
D18*
X278923750Y-123825000D03*
%TD*%
%TO.C,MX101*%
X244951250Y-104775000D03*
D19*
X250031250Y-104775000D03*
D18*
X255111250Y-104775000D03*
%TD*%
%TO.C,MX6*%
X99695000Y-9525000D03*
D19*
X104775000Y-9525000D03*
D18*
X109855000Y-9525000D03*
%TD*%
%TO.C,MX43*%
X90170000Y-66675000D03*
D19*
X95250000Y-66675000D03*
D18*
X100330000Y-66675000D03*
%TD*%
%TO.C,MX63*%
X299720000Y-66675000D03*
D19*
X304800000Y-66675000D03*
D18*
X309880000Y-66675000D03*
%TD*%
%TO.C,MX13*%
X252095000Y-9525000D03*
D19*
X257175000Y-9525000D03*
D18*
X262255000Y-9525000D03*
%TD*%
%TO.C,MX67*%
X337820000Y-66675000D03*
D19*
X342900000Y-66675000D03*
D18*
X347980000Y-66675000D03*
%TD*%
%TO.C,MX51*%
X166370000Y-66675000D03*
D19*
X171450000Y-66675000D03*
D18*
X176530000Y-66675000D03*
%TD*%
%TO.C,MX44*%
X94932500Y-85725000D03*
D19*
X100012500Y-85725000D03*
D18*
X105092500Y-85725000D03*
%TD*%
%TO.C,MX65*%
X318770000Y-66675000D03*
D19*
X323850000Y-66675000D03*
D18*
X328930000Y-66675000D03*
%TD*%
%TO.C,MX77*%
X85407500Y-104775000D03*
D19*
X90487500Y-104775000D03*
D18*
X95567500Y-104775000D03*
%TD*%
%TO.C,MX11*%
X213995000Y-9525000D03*
D19*
X219075000Y-9525000D03*
D18*
X224155000Y-9525000D03*
%TD*%
%TO.C,MX14*%
X271145000Y-9525000D03*
D19*
X276225000Y-9525000D03*
D18*
X281305000Y-9525000D03*
%TD*%
%TO.C,MX81*%
X123507500Y-104775000D03*
D19*
X128587500Y-104775000D03*
D18*
X133667500Y-104775000D03*
%TD*%
%TO.C,MX59*%
X242570000Y-66675000D03*
D19*
X247650000Y-66675000D03*
D18*
X252730000Y-66675000D03*
%TD*%
%TO.C,MX54*%
X190182500Y-85725000D03*
D19*
X195262500Y-85725000D03*
D18*
X200342500Y-85725000D03*
%TD*%
%TO.C,MX100*%
X318770000Y-123825000D03*
D19*
X323850000Y-123825000D03*
D18*
X328930000Y-123825000D03*
%TD*%
%TO.C,MX20*%
X42545000Y-47625000D03*
D19*
X47625000Y-47625000D03*
D18*
X52705000Y-47625000D03*
%TD*%
%TO.C,MX53*%
X185420000Y-66675000D03*
D19*
X190500000Y-66675000D03*
D18*
X195580000Y-66675000D03*
%TD*%
%TO.C,MX29*%
X213995000Y-47625000D03*
D19*
X219075000Y-47625000D03*
D18*
X224155000Y-47625000D03*
%TD*%
%TO.C,MX47*%
X128270000Y-66675000D03*
D19*
X133350000Y-66675000D03*
D18*
X138430000Y-66675000D03*
%TD*%
%TO.C,MX72*%
X33020000Y-123825000D03*
D19*
X38100000Y-123825000D03*
D18*
X43180000Y-123825000D03*
%TD*%
%TO.C,MX46*%
X113982500Y-85725000D03*
D19*
X119062500Y-85725000D03*
D18*
X124142500Y-85725000D03*
%TD*%
%TO.C,MX30*%
X233045000Y-47625000D03*
D19*
X238125000Y-47625000D03*
D18*
X243205000Y-47625000D03*
%TD*%
%TO.C,MX33*%
X318770000Y-47625000D03*
D19*
X323850000Y-47625000D03*
D18*
X328930000Y-47625000D03*
%TD*%
%TO.C,MX55*%
X204470000Y-66675000D03*
D19*
X209550000Y-66675000D03*
D18*
X214630000Y-66675000D03*
%TD*%
%TO.C,MX26*%
X156845000Y-47625000D03*
D19*
X161925000Y-47625000D03*
D18*
X167005000Y-47625000D03*
%TD*%
%TO.C,MX5*%
X80645000Y-9525000D03*
D19*
X85725000Y-9525000D03*
D18*
X90805000Y-9525000D03*
%TD*%
%TO.C,MX91*%
X218757500Y-104775000D03*
D19*
X223837500Y-104775000D03*
D18*
X228917500Y-104775000D03*
%TD*%
%TO.C,MX21*%
X61595000Y-47625000D03*
D19*
X66675000Y-47625000D03*
D18*
X71755000Y-47625000D03*
%TD*%
%TO.C,MX75*%
X66357500Y-104775000D03*
D19*
X71437500Y-104775000D03*
D18*
X76517500Y-104775000D03*
%TD*%
%TO.C,MX39*%
X52070000Y-66675000D03*
D19*
X57150000Y-66675000D03*
D18*
X62230000Y-66675000D03*
%TD*%
%TO.C,MX7*%
X128270000Y-9525000D03*
D19*
X133350000Y-9525000D03*
D18*
X138430000Y-9525000D03*
%TD*%
%TO.C,MX94*%
X242570000Y-123825000D03*
D19*
X247650000Y-123825000D03*
D18*
X252730000Y-123825000D03*
%TD*%
%TO.C,MX22*%
X80645000Y-47625000D03*
D19*
X85725000Y-47625000D03*
D18*
X90805000Y-47625000D03*
%TD*%
%TO.C,MX8*%
X147320000Y-9525000D03*
D19*
X152400000Y-9525000D03*
D18*
X157480000Y-9525000D03*
%TD*%
%TO.C,MX18*%
X4445000Y-47625000D03*
D19*
X9525000Y-47625000D03*
D18*
X14605000Y-47625000D03*
%TD*%
%TO.C,MX83*%
X142557500Y-104775000D03*
D19*
X147637500Y-104775000D03*
D18*
X152717500Y-104775000D03*
%TD*%
%TO.C,MX34*%
X337820000Y-47625000D03*
D19*
X342900000Y-47625000D03*
D18*
X347980000Y-47625000D03*
%TD*%
%TO.C,MX23*%
X99695000Y-47625000D03*
D19*
X104775000Y-47625000D03*
D18*
X109855000Y-47625000D03*
%TD*%
%TO.C,MX49*%
X147320000Y-66675000D03*
D19*
X152400000Y-66675000D03*
D18*
X157480000Y-66675000D03*
%TD*%
%TO.C,MX28*%
X194945000Y-47625000D03*
D19*
X200025000Y-47625000D03*
D18*
X205105000Y-47625000D03*
%TD*%
%TO.C,MX25*%
X137795000Y-47625000D03*
D19*
X142875000Y-47625000D03*
D18*
X147955000Y-47625000D03*
%TD*%
%TO.C,MX71*%
X28257500Y-104775000D03*
D19*
X33337500Y-104775000D03*
D18*
X38417500Y-104775000D03*
%TD*%
%TO.C,MX37*%
X33020000Y-66675000D03*
D19*
X38100000Y-66675000D03*
D18*
X43180000Y-66675000D03*
%TD*%
%TO.C,MX12*%
X233045000Y-9525000D03*
D19*
X238125000Y-9525000D03*
D18*
X243205000Y-9525000D03*
%TD*%
%TO.C,MX57*%
X223520000Y-66675000D03*
D19*
X228600000Y-66675000D03*
D18*
X233680000Y-66675000D03*
%TD*%
%TO.C,MX31*%
X271145000Y-47625000D03*
D19*
X276225000Y-47625000D03*
D18*
X281305000Y-47625000D03*
%TD*%
%TO.C,MX24*%
X118745000Y-47625000D03*
D19*
X123825000Y-47625000D03*
D18*
X128905000Y-47625000D03*
%TD*%
%TO.C,MX50*%
X152082500Y-85725000D03*
D19*
X157162500Y-85725000D03*
D18*
X162242500Y-85725000D03*
%TD*%
%TO.C,MX95*%
X271145000Y-104775000D03*
D19*
X276225000Y-104775000D03*
D18*
X281305000Y-104775000D03*
%TD*%
%TO.C,MX19*%
X23495000Y-47625000D03*
D19*
X28575000Y-47625000D03*
D18*
X33655000Y-47625000D03*
%TD*%
%TO.C,MX4*%
X61595000Y-9525000D03*
D19*
X66675000Y-9525000D03*
D18*
X71755000Y-9525000D03*
%TD*%
%TO.C,MX98*%
X299720000Y-123825000D03*
D19*
X304800000Y-123825000D03*
D18*
X309880000Y-123825000D03*
%TD*%
%TO.C,MX38*%
X37782500Y-85725000D03*
D19*
X42862500Y-85725000D03*
D18*
X47942500Y-85725000D03*
%TD*%
%TO.C,MX48*%
X133032500Y-85725000D03*
D19*
X138112500Y-85725000D03*
D18*
X143192500Y-85725000D03*
%TD*%
%TO.C,MX85*%
X161607500Y-104775000D03*
D19*
X166687500Y-104775000D03*
D18*
X171767500Y-104775000D03*
%TD*%
%TO.C,MX99*%
X318770000Y-104775000D03*
D19*
X323850000Y-104775000D03*
D18*
X328930000Y-104775000D03*
%TD*%
%TO.C,MX9*%
X166370000Y-9525000D03*
D19*
X171450000Y-9525000D03*
D18*
X176530000Y-9525000D03*
%TD*%
%TO.C,MX40*%
X56832500Y-85725000D03*
D19*
X61912500Y-85725000D03*
D18*
X66992500Y-85725000D03*
%TD*%
%TO.C,MX42*%
X75882500Y-85725000D03*
D19*
X80962500Y-85725000D03*
D18*
X86042500Y-85725000D03*
%TD*%
%TO.C,MX41*%
X71120000Y-66675000D03*
D19*
X76200000Y-66675000D03*
D18*
X81280000Y-66675000D03*
%TD*%
%TO.C,MX87*%
X180657500Y-104775000D03*
D19*
X185737500Y-104775000D03*
D18*
X190817500Y-104775000D03*
%TD*%
%TO.C,MX27*%
X175895000Y-47625000D03*
D19*
X180975000Y-47625000D03*
D18*
X186055000Y-47625000D03*
%TD*%
%TO.C,MX102*%
X337820000Y-123825000D03*
D19*
X342900000Y-123825000D03*
D18*
X347980000Y-123825000D03*
%TD*%
%TO.C,MX79*%
X104457500Y-104775000D03*
D19*
X109537500Y-104775000D03*
D18*
X114617500Y-104775000D03*
%TD*%
%TO.C,MX58*%
X228282500Y-85725000D03*
D19*
X233362500Y-85725000D03*
D18*
X238442500Y-85725000D03*
%TD*%
%TO.C,MX10*%
X185420000Y-9525000D03*
D19*
X190500000Y-9525000D03*
D18*
X195580000Y-9525000D03*
%TD*%
%TO.C,MX45*%
X109220000Y-66675000D03*
D19*
X114300000Y-66675000D03*
D18*
X119380000Y-66675000D03*
%TD*%
%TO.C,MX73*%
X47307500Y-104775000D03*
D19*
X52387500Y-104775000D03*
D18*
X57467500Y-104775000D03*
%TD*%
%TO.C,MX1*%
X4445000Y-9525000D03*
D19*
X9525000Y-9525000D03*
D18*
X14605000Y-9525000D03*
%TD*%
%TO.C,MX3*%
X42545000Y-9525000D03*
D19*
X47625000Y-9525000D03*
D18*
X52705000Y-9525000D03*
%TD*%
%TO.C,MX32*%
X299720000Y-47625000D03*
D19*
X304800000Y-47625000D03*
D18*
X309880000Y-47625000D03*
%TD*%
%TO.C,MX89*%
X199707500Y-104775000D03*
D19*
X204787500Y-104775000D03*
D18*
X209867500Y-104775000D03*
%TD*%
%TO.C,MX52*%
X171132500Y-85725000D03*
D19*
X176212500Y-85725000D03*
D18*
X181292500Y-85725000D03*
%TD*%
%TO.C,MX56*%
X209232500Y-85725000D03*
D19*
X214312500Y-85725000D03*
D18*
X219392500Y-85725000D03*
%TD*%
%TO.C,MX60*%
X252095000Y-47625000D03*
D19*
X257175000Y-47625000D03*
D18*
X262255000Y-47625000D03*
%TD*%
D21*
%TO.C,U1*%
X182879999Y-35877499D03*
X180339999Y-35877499D03*
D22*
X177799999Y-35877499D03*
D21*
X175259999Y-35877499D03*
X172719999Y-35877499D03*
X170179999Y-35877499D03*
X167639999Y-35877499D03*
D22*
X165099999Y-35877499D03*
D21*
X162559999Y-35877499D03*
X160019999Y-35877499D03*
X157479999Y-35877499D03*
X154939999Y-35877499D03*
D22*
X152399999Y-35877499D03*
D21*
X149859999Y-35877499D03*
X147319999Y-35877499D03*
X144779999Y-35877499D03*
X142239999Y-35877499D03*
D22*
X139699999Y-35877499D03*
D21*
X137159999Y-35877499D03*
X134619999Y-35877499D03*
X134619999Y-18097499D03*
X137159999Y-18097499D03*
D22*
X139699999Y-18097499D03*
D21*
X142239999Y-18097499D03*
X144779999Y-18097499D03*
X147319999Y-18097499D03*
X149859999Y-18097499D03*
D22*
X152399999Y-18097499D03*
D21*
X154939999Y-18097499D03*
X157479999Y-18097499D03*
X160019999Y-18097499D03*
X162559999Y-18097499D03*
D22*
X165099999Y-18097499D03*
D21*
X167639999Y-18097499D03*
X170179999Y-18097499D03*
X172719999Y-18097499D03*
X175259999Y-18097499D03*
D22*
X177799999Y-18097499D03*
D21*
X180339999Y-18097499D03*
X182879999Y-18097499D03*
X134849999Y-29527499D03*
D22*
X134849999Y-26987499D03*
D21*
X134849999Y-24447499D03*
%TD*%
M02*
